<mxfile host="app.diagrams.net" modified="2023-08-06T08:36:32.332Z" agent="Mozilla/5.0 (Windows NT 10.0; Win64; x64) AppleWebKit/537.36 (KHTML, like Gecko) Chrome/115.0.0.0 Safari/537.36" etag="blY8RjXur5UHTgVySkt9" version="21.6.6" type="github">
  <diagram id="yPxyJZ8AM_hMuL3Unpa9" name="complex gitflow">
    <mxGraphModel dx="1687" dy="1754" grid="1" gridSize="10" guides="1" tooltips="1" connect="1" arrows="1" fold="1" page="1" pageScale="1" pageWidth="1100" pageHeight="850" math="0" shadow="0">
      <root>
        <mxCell id="0" />
        <mxCell id="1" parent="0" />
        <mxCell id="xFN7-tCPdjFMK5SM0wmP-22" value="" style="shape=ext;double=1;rounded=1;whiteSpace=wrap;html=1;" vertex="1" parent="1">
          <mxGeometry x="180" y="-580" width="900" height="270" as="geometry" />
        </mxCell>
        <mxCell id="uWUnNED6HEl2aK5fdaIb-103" value="All System Initiaze" style="text;html=1;strokeColor=none;fillColor=none;align=center;verticalAlign=middle;whiteSpace=wrap;overflow=hidden;fontSize=30;rotation=-90;fontStyle=1" parent="1" vertex="1">
          <mxGeometry x="-80" y="-280" width="270" height="40" as="geometry" />
        </mxCell>
        <mxCell id="baq_1LEB1Bd891E-qvRd-64" value="Hardware Control" style="text;html=1;strokeColor=none;fillColor=none;align=center;verticalAlign=middle;whiteSpace=wrap;overflow=hidden;fontSize=20;rotation=0;fontStyle=1;labelBackgroundColor=none;labelBorderColor=default;" parent="1" vertex="1">
          <mxGeometry x="336" y="-570" width="180" height="40" as="geometry" />
        </mxCell>
        <mxCell id="uWUnNED6HEl2aK5fdaIb-13" value="main" style="text;html=1;strokeColor=none;fillColor=none;align=center;verticalAlign=middle;whiteSpace=wrap;overflow=hidden;fontSize=25;fontStyle=1;fontFamily=Courier New;rotation=90;" parent="1" vertex="1">
          <mxGeometry x="636" y="-760" width="102" height="53" as="geometry" />
        </mxCell>
        <mxCell id="uWUnNED6HEl2aK5fdaIb-17" value="" style="verticalLabelPosition=bottom;verticalAlign=top;html=1;strokeWidth=4;shape=mxgraph.flowchart.on-page_reference;plain-purple;gradientColor=none;strokeColor=#000000;fillColor=#D5E8D4;rotation=90;" parent="1" vertex="1">
          <mxGeometry x="587" y="-420" width="30" height="30" as="geometry" />
        </mxCell>
        <mxCell id="uWUnNED6HEl2aK5fdaIb-75" style="edgeStyle=orthogonalEdgeStyle;rounded=0;orthogonalLoop=1;jettySize=auto;html=1;entryX=1;entryY=0.5;entryDx=0;entryDy=0;entryPerimeter=0;endArrow=none;endFill=0;strokeWidth=4;curved=1;exitX=0.5;exitY=0;exitDx=0;exitDy=0;exitPerimeter=0;" parent="1" source="uWUnNED6HEl2aK5fdaIb-17" target="baq_1LEB1Bd891E-qvRd-63" edge="1">
          <mxGeometry relative="1" as="geometry">
            <mxPoint x="684" y="-525" as="sourcePoint" />
            <mxPoint x="621.51" y="-425" as="targetPoint" />
          </mxGeometry>
        </mxCell>
        <mxCell id="uWUnNED6HEl2aK5fdaIb-8" value="" style="edgeStyle=orthogonalEdgeStyle;rounded=0;html=1;jettySize=auto;orthogonalLoop=1;plain-blue;endArrow=none;endFill=0;strokeWidth=4;strokeColor=#000000;entryX=0;entryY=0.5;entryDx=0;entryDy=0;entryPerimeter=0;" parent="1" target="baq_1LEB1Bd891E-qvRd-63" edge="1">
          <mxGeometry x="529" y="-445" as="geometry">
            <mxPoint x="687" y="-368" as="targetPoint" />
            <mxPoint x="687" y="-550" as="sourcePoint" />
          </mxGeometry>
        </mxCell>
        <mxCell id="baq_1LEB1Bd891E-qvRd-66" value="" style="verticalLabelPosition=bottom;verticalAlign=top;html=1;strokeWidth=4;shape=mxgraph.flowchart.on-page_reference;plain-purple;gradientColor=none;strokeColor=#000000;fillColor=#D5E8D4;rotation=90;" parent="1" vertex="1">
          <mxGeometry x="760" y="-420" width="30" height="30" as="geometry" />
        </mxCell>
        <mxCell id="baq_1LEB1Bd891E-qvRd-67" style="edgeStyle=orthogonalEdgeStyle;rounded=0;orthogonalLoop=1;jettySize=auto;html=1;entryX=1;entryY=0.5;entryDx=0;entryDy=0;entryPerimeter=0;endArrow=none;endFill=0;strokeWidth=4;curved=1;exitX=0.5;exitY=1;exitDx=0;exitDy=0;exitPerimeter=0;" parent="1" source="baq_1LEB1Bd891E-qvRd-66" edge="1">
          <mxGeometry relative="1" as="geometry">
            <mxPoint x="759.9999999999998" y="-405" as="sourcePoint" />
            <mxPoint x="689.9999999999998" y="-470" as="targetPoint" />
          </mxGeometry>
        </mxCell>
        <mxCell id="baq_1LEB1Bd891E-qvRd-69" value="" style="verticalLabelPosition=bottom;verticalAlign=top;html=1;strokeWidth=4;shape=mxgraph.flowchart.on-page_reference;plain-purple;gradientColor=none;strokeColor=#000000;fillColor=#D5E8D4;rotation=90;" parent="1" vertex="1">
          <mxGeometry x="933" y="-420" width="30" height="30" as="geometry" />
        </mxCell>
        <mxCell id="baq_1LEB1Bd891E-qvRd-70" value="" style="verticalLabelPosition=bottom;verticalAlign=top;html=1;strokeWidth=4;shape=mxgraph.flowchart.on-page_reference;plain-purple;gradientColor=none;strokeColor=#000000;fillColor=#D5E8D4;rotation=90;" parent="1" vertex="1">
          <mxGeometry x="414" y="-420" width="30" height="30" as="geometry" />
        </mxCell>
        <mxCell id="baq_1LEB1Bd891E-qvRd-72" style="edgeStyle=orthogonalEdgeStyle;rounded=0;orthogonalLoop=1;jettySize=auto;html=1;entryX=0.5;entryY=1;entryDx=0;entryDy=0;entryPerimeter=0;endArrow=none;endFill=0;strokeWidth=4;curved=1;exitX=0;exitY=0.5;exitDx=0;exitDy=0;exitPerimeter=0;" parent="1" source="baq_1LEB1Bd891E-qvRd-70" target="baq_1LEB1Bd891E-qvRd-63" edge="1">
          <mxGeometry relative="1" as="geometry">
            <mxPoint x="490" y="-426" as="sourcePoint" />
            <mxPoint x="560" y="-491" as="targetPoint" />
          </mxGeometry>
        </mxCell>
        <mxCell id="baq_1LEB1Bd891E-qvRd-73" style="edgeStyle=orthogonalEdgeStyle;rounded=0;orthogonalLoop=1;jettySize=auto;html=1;entryX=0.5;entryY=1;entryDx=0;entryDy=0;entryPerimeter=0;endArrow=none;endFill=0;strokeWidth=4;curved=1;exitX=0;exitY=0.5;exitDx=0;exitDy=0;exitPerimeter=0;" parent="1" edge="1">
          <mxGeometry relative="1" as="geometry">
            <mxPoint x="701.9972413793093" y="-484.9972413793105" as="sourcePoint" />
            <mxPoint x="944.9972413793093" y="-419.9972413793105" as="targetPoint" />
          </mxGeometry>
        </mxCell>
        <mxCell id="xFN7-tCPdjFMK5SM0wmP-1" value="Energy Control" style="text;html=1;strokeColor=none;fillColor=none;align=center;verticalAlign=middle;whiteSpace=wrap;overflow=hidden;fontSize=14;rotation=0;" vertex="1" parent="1">
          <mxGeometry x="370" y="-380" width="125" height="20" as="geometry" />
        </mxCell>
        <mxCell id="xFN7-tCPdjFMK5SM0wmP-2" value="Phase Conrtol" style="text;html=1;strokeColor=none;fillColor=none;align=center;verticalAlign=middle;whiteSpace=wrap;overflow=hidden;fontSize=14;rotation=0;" vertex="1" parent="1">
          <mxGeometry x="537" y="-380" width="125" height="20" as="geometry" />
        </mxCell>
        <mxCell id="xFN7-tCPdjFMK5SM0wmP-3" value="Contactor Status" style="text;html=1;strokeColor=none;fillColor=none;align=center;verticalAlign=middle;whiteSpace=wrap;overflow=hidden;fontSize=14;rotation=0;" vertex="1" parent="1">
          <mxGeometry x="712.5" y="-380" width="125" height="20" as="geometry" />
        </mxCell>
        <mxCell id="xFN7-tCPdjFMK5SM0wmP-4" value="All Sensor Control" style="text;html=1;strokeColor=none;fillColor=none;align=center;verticalAlign=middle;whiteSpace=wrap;overflow=hidden;fontSize=14;rotation=0;" vertex="1" parent="1">
          <mxGeometry x="885.5" y="-380" width="125" height="20" as="geometry" />
        </mxCell>
        <mxCell id="xFN7-tCPdjFMK5SM0wmP-19" value="" style="endArrow=classic;startArrow=classic;html=1;rounded=0;exitX=0.5;exitY=0;exitDx=0;exitDy=0;exitPerimeter=0;entryX=0.5;entryY=1;entryDx=0;entryDy=0;entryPerimeter=0;strokeWidth=4;" edge="1" parent="1" source="baq_1LEB1Bd891E-qvRd-70" target="uWUnNED6HEl2aK5fdaIb-17">
          <mxGeometry width="50" height="50" relative="1" as="geometry">
            <mxPoint x="520" y="-430" as="sourcePoint" />
            <mxPoint x="570" y="-480" as="targetPoint" />
          </mxGeometry>
        </mxCell>
        <mxCell id="xFN7-tCPdjFMK5SM0wmP-21" value="" style="endArrow=classic;html=1;rounded=0;entryX=0;entryY=0.5;entryDx=0;entryDy=0;entryPerimeter=0;exitX=1;exitY=0.5;exitDx=0;exitDy=0;strokeWidth=14;" edge="1" parent="1" source="uWUnNED6HEl2aK5fdaIb-13">
          <mxGeometry width="50" height="50" relative="1" as="geometry">
            <mxPoint x="520" y="-430" as="sourcePoint" />
            <mxPoint x="687" y="-580" as="targetPoint" />
          </mxGeometry>
        </mxCell>
        <mxCell id="xFN7-tCPdjFMK5SM0wmP-23" value="" style="endArrow=classic;html=1;rounded=0;entryX=0;entryY=0.5;entryDx=0;entryDy=0;entryPerimeter=0;exitX=1;exitY=0.5;exitDx=0;exitDy=0;strokeWidth=14;" edge="1" parent="1">
          <mxGeometry width="50" height="50" relative="1" as="geometry">
            <mxPoint x="686.5" y="-310" as="sourcePoint" />
            <mxPoint x="686.5" y="-208" as="targetPoint" />
          </mxGeometry>
        </mxCell>
        <mxCell id="xFN7-tCPdjFMK5SM0wmP-24" value="" style="shape=ext;double=1;rounded=1;whiteSpace=wrap;html=1;" vertex="1" parent="1">
          <mxGeometry x="180" y="-200" width="900" height="270" as="geometry" />
        </mxCell>
        <mxCell id="xFN7-tCPdjFMK5SM0wmP-27" value="" style="verticalLabelPosition=bottom;verticalAlign=top;html=1;strokeWidth=4;shape=mxgraph.flowchart.on-page_reference;plain-purple;gradientColor=none;strokeColor=#000000;fillColor=#D5E8D4;rotation=90;" vertex="1" parent="1">
          <mxGeometry x="584" y="-50" width="30" height="30" as="geometry" />
        </mxCell>
        <mxCell id="xFN7-tCPdjFMK5SM0wmP-28" style="edgeStyle=orthogonalEdgeStyle;rounded=0;orthogonalLoop=1;jettySize=auto;html=1;entryX=1;entryY=0.5;entryDx=0;entryDy=0;entryPerimeter=0;endArrow=none;endFill=0;strokeWidth=4;curved=1;exitX=0.5;exitY=0;exitDx=0;exitDy=0;exitPerimeter=0;" edge="1" source="xFN7-tCPdjFMK5SM0wmP-27" target="xFN7-tCPdjFMK5SM0wmP-30" parent="1">
          <mxGeometry relative="1" as="geometry">
            <mxPoint x="681" y="-155" as="sourcePoint" />
            <mxPoint x="618.51" y="-55" as="targetPoint" />
          </mxGeometry>
        </mxCell>
        <mxCell id="xFN7-tCPdjFMK5SM0wmP-29" value="" style="edgeStyle=orthogonalEdgeStyle;rounded=0;html=1;jettySize=auto;orthogonalLoop=1;plain-blue;endArrow=none;endFill=0;strokeWidth=4;strokeColor=#000000;entryX=0;entryY=0.5;entryDx=0;entryDy=0;entryPerimeter=0;" edge="1" target="xFN7-tCPdjFMK5SM0wmP-30" parent="1">
          <mxGeometry x="529" y="-445" as="geometry">
            <mxPoint x="684" y="2" as="targetPoint" />
            <mxPoint x="684" y="-180" as="sourcePoint" />
          </mxGeometry>
        </mxCell>
        <mxCell id="xFN7-tCPdjFMK5SM0wmP-31" value="" style="verticalLabelPosition=bottom;verticalAlign=top;html=1;strokeWidth=4;shape=mxgraph.flowchart.on-page_reference;plain-purple;gradientColor=none;strokeColor=#000000;fillColor=#D5E8D4;rotation=90;" vertex="1" parent="1">
          <mxGeometry x="757" y="-50" width="30" height="30" as="geometry" />
        </mxCell>
        <mxCell id="xFN7-tCPdjFMK5SM0wmP-32" style="edgeStyle=orthogonalEdgeStyle;rounded=0;orthogonalLoop=1;jettySize=auto;html=1;entryX=1;entryY=0.5;entryDx=0;entryDy=0;entryPerimeter=0;endArrow=none;endFill=0;strokeWidth=4;curved=1;exitX=0.5;exitY=1;exitDx=0;exitDy=0;exitPerimeter=0;" edge="1" source="xFN7-tCPdjFMK5SM0wmP-31" parent="1">
          <mxGeometry relative="1" as="geometry">
            <mxPoint x="756.9999999999998" y="-35" as="sourcePoint" />
            <mxPoint x="686.9999999999998" y="-100" as="targetPoint" />
          </mxGeometry>
        </mxCell>
        <mxCell id="xFN7-tCPdjFMK5SM0wmP-37" value="Emergency Buttom Control" style="text;html=1;strokeColor=none;fillColor=none;align=center;verticalAlign=middle;whiteSpace=wrap;overflow=hidden;fontSize=14;rotation=0;" vertex="1" parent="1">
          <mxGeometry x="709.5" y="-10" width="125" height="40" as="geometry" />
        </mxCell>
        <mxCell id="xFN7-tCPdjFMK5SM0wmP-38" value="Hardware Warning Conrtol" style="text;html=1;strokeColor=none;fillColor=none;align=center;verticalAlign=middle;whiteSpace=wrap;overflow=hidden;fontSize=14;rotation=0;" vertex="1" parent="1">
          <mxGeometry x="534" width="146" height="40" as="geometry" />
        </mxCell>
        <mxCell id="xFN7-tCPdjFMK5SM0wmP-42" value="Alarm - Warning Control" style="text;html=1;strokeColor=none;fillColor=none;align=center;verticalAlign=middle;whiteSpace=wrap;overflow=hidden;fontSize=20;rotation=0;fontStyle=1;labelBackgroundColor=none;labelBorderColor=default;" vertex="1" parent="1">
          <mxGeometry x="336" y="-180" width="180" height="60" as="geometry" />
        </mxCell>
        <mxCell id="xFN7-tCPdjFMK5SM0wmP-43" value="" style="verticalLabelPosition=bottom;verticalAlign=top;html=1;strokeWidth=4;shape=mxgraph.flowchart.on-page_reference;plain-purple;gradientColor=none;strokeColor=#000000;fillColor=#D5E8D4;rotation=90;" vertex="1" parent="1">
          <mxGeometry x="240" y="-420" width="30" height="30" as="geometry" />
        </mxCell>
        <mxCell id="xFN7-tCPdjFMK5SM0wmP-44" style="edgeStyle=orthogonalEdgeStyle;rounded=0;orthogonalLoop=1;jettySize=auto;html=1;entryX=0.5;entryY=1;entryDx=0;entryDy=0;entryPerimeter=0;endArrow=none;endFill=0;strokeWidth=4;curved=1;exitX=0;exitY=0.5;exitDx=0;exitDy=0;exitPerimeter=0;" edge="1" parent="1" source="xFN7-tCPdjFMK5SM0wmP-43" target="baq_1LEB1Bd891E-qvRd-63">
          <mxGeometry relative="1" as="geometry">
            <mxPoint x="260" y="-425" as="sourcePoint" />
            <mxPoint x="503" y="-490" as="targetPoint" />
          </mxGeometry>
        </mxCell>
        <mxCell id="xFN7-tCPdjFMK5SM0wmP-45" value="All Buttom State Control" style="text;html=1;strokeColor=none;fillColor=none;align=center;verticalAlign=middle;whiteSpace=wrap;overflow=hidden;fontSize=14;rotation=0;" vertex="1" parent="1">
          <mxGeometry x="200" y="-380" width="125" height="40" as="geometry" />
        </mxCell>
        <mxCell id="xFN7-tCPdjFMK5SM0wmP-30" value="" style="verticalLabelPosition=bottom;verticalAlign=top;html=1;strokeWidth=4;shape=mxgraph.flowchart.on-page_reference;gradientColor=#ffa500;strokeColor=#66B2FF;fillColor=#ffcd28;rotation=90;" vertex="1" parent="1">
          <mxGeometry x="669" y="-130" width="30" height="30" as="geometry" />
        </mxCell>
        <mxCell id="baq_1LEB1Bd891E-qvRd-63" value="" style="verticalLabelPosition=bottom;verticalAlign=top;html=1;strokeWidth=4;shape=mxgraph.flowchart.on-page_reference;gradientColor=#ffa500;strokeColor=#66B2FF;fillColor=#ffcd28;rotation=90;" parent="1" vertex="1">
          <mxGeometry x="672" y="-500" width="30" height="30" as="geometry" />
        </mxCell>
        <mxCell id="xFN7-tCPdjFMK5SM0wmP-47" value="" style="shape=curlyBracket;whiteSpace=wrap;html=1;rounded=1;labelPosition=left;verticalLabelPosition=middle;align=right;verticalAlign=middle;fillColor=#cce5ff;strokeColor=#36393d;strokeWidth=4;gradientColor=none;" vertex="1" parent="1">
          <mxGeometry x="80" y="-600" width="100" height="680" as="geometry" />
        </mxCell>
        <mxCell id="xFN7-tCPdjFMK5SM0wmP-48" value="" style="shape=ext;double=1;rounded=1;whiteSpace=wrap;html=1;" vertex="1" parent="1">
          <mxGeometry x="180" y="290" width="900" height="270" as="geometry" />
        </mxCell>
        <mxCell id="xFN7-tCPdjFMK5SM0wmP-49" value="System Start" style="text;html=1;strokeColor=none;fillColor=none;align=center;verticalAlign=middle;whiteSpace=wrap;overflow=hidden;fontSize=20;rotation=0;fontStyle=1;labelBackgroundColor=none;labelBorderColor=default;" vertex="1" parent="1">
          <mxGeometry x="336" y="300" width="180" height="40" as="geometry" />
        </mxCell>
        <mxCell id="xFN7-tCPdjFMK5SM0wmP-50" value="" style="verticalLabelPosition=bottom;verticalAlign=top;html=1;strokeWidth=4;shape=mxgraph.flowchart.on-page_reference;fillColor=#FF7729;strokeColor=#36393d;rotation=90;" vertex="1" parent="1">
          <mxGeometry x="672" y="290" width="30" height="30" as="geometry" />
        </mxCell>
        <mxCell id="xFN7-tCPdjFMK5SM0wmP-51" value="" style="verticalLabelPosition=bottom;verticalAlign=top;html=1;strokeWidth=4;shape=mxgraph.flowchart.on-page_reference;plain-purple;gradientColor=none;strokeColor=#000000;fillColor=#D5E8D4;rotation=90;" vertex="1" parent="1">
          <mxGeometry x="587" y="450" width="30" height="30" as="geometry" />
        </mxCell>
        <mxCell id="xFN7-tCPdjFMK5SM0wmP-52" style="edgeStyle=orthogonalEdgeStyle;rounded=0;orthogonalLoop=1;jettySize=auto;html=1;entryX=1;entryY=0.5;entryDx=0;entryDy=0;entryPerimeter=0;endArrow=none;endFill=0;strokeWidth=4;curved=1;exitX=0.5;exitY=0;exitDx=0;exitDy=0;exitPerimeter=0;" edge="1" source="xFN7-tCPdjFMK5SM0wmP-51" target="xFN7-tCPdjFMK5SM0wmP-68" parent="1">
          <mxGeometry relative="1" as="geometry">
            <mxPoint x="684" y="345" as="sourcePoint" />
            <mxPoint x="621.51" y="445" as="targetPoint" />
          </mxGeometry>
        </mxCell>
        <mxCell id="xFN7-tCPdjFMK5SM0wmP-53" value="" style="edgeStyle=orthogonalEdgeStyle;rounded=0;html=1;jettySize=auto;orthogonalLoop=1;plain-blue;endArrow=none;endFill=0;strokeWidth=4;strokeColor=#000000;entryX=0;entryY=0.5;entryDx=0;entryDy=0;entryPerimeter=0;" edge="1" source="xFN7-tCPdjFMK5SM0wmP-50" target="xFN7-tCPdjFMK5SM0wmP-68" parent="1">
          <mxGeometry x="529" y="-445" as="geometry">
            <mxPoint x="687" y="502" as="targetPoint" />
          </mxGeometry>
        </mxCell>
        <mxCell id="xFN7-tCPdjFMK5SM0wmP-54" value="" style="verticalLabelPosition=bottom;verticalAlign=top;html=1;strokeWidth=4;shape=mxgraph.flowchart.on-page_reference;plain-purple;gradientColor=none;strokeColor=#000000;fillColor=#D5E8D4;rotation=90;" vertex="1" parent="1">
          <mxGeometry x="760" y="450" width="30" height="30" as="geometry" />
        </mxCell>
        <mxCell id="xFN7-tCPdjFMK5SM0wmP-55" style="edgeStyle=orthogonalEdgeStyle;rounded=0;orthogonalLoop=1;jettySize=auto;html=1;entryX=1;entryY=0.5;entryDx=0;entryDy=0;entryPerimeter=0;endArrow=none;endFill=0;strokeWidth=4;curved=1;exitX=0.5;exitY=1;exitDx=0;exitDy=0;exitPerimeter=0;" edge="1" source="xFN7-tCPdjFMK5SM0wmP-54" parent="1">
          <mxGeometry relative="1" as="geometry">
            <mxPoint x="759.9999999999998" y="465" as="sourcePoint" />
            <mxPoint x="689.9999999999998" y="400" as="targetPoint" />
          </mxGeometry>
        </mxCell>
        <mxCell id="xFN7-tCPdjFMK5SM0wmP-56" value="" style="verticalLabelPosition=bottom;verticalAlign=top;html=1;strokeWidth=4;shape=mxgraph.flowchart.on-page_reference;plain-purple;gradientColor=none;strokeColor=#000000;fillColor=#D5E8D4;rotation=90;" vertex="1" parent="1">
          <mxGeometry x="933" y="450" width="30" height="30" as="geometry" />
        </mxCell>
        <mxCell id="xFN7-tCPdjFMK5SM0wmP-57" value="" style="verticalLabelPosition=bottom;verticalAlign=top;html=1;strokeWidth=4;shape=mxgraph.flowchart.on-page_reference;plain-purple;gradientColor=none;strokeColor=#000000;fillColor=#D5E8D4;rotation=90;" vertex="1" parent="1">
          <mxGeometry x="414" y="450" width="30" height="30" as="geometry" />
        </mxCell>
        <mxCell id="xFN7-tCPdjFMK5SM0wmP-58" style="edgeStyle=orthogonalEdgeStyle;rounded=0;orthogonalLoop=1;jettySize=auto;html=1;entryX=0.5;entryY=1;entryDx=0;entryDy=0;entryPerimeter=0;endArrow=none;endFill=0;strokeWidth=4;curved=1;exitX=0;exitY=0.5;exitDx=0;exitDy=0;exitPerimeter=0;" edge="1" source="xFN7-tCPdjFMK5SM0wmP-57" target="xFN7-tCPdjFMK5SM0wmP-68" parent="1">
          <mxGeometry relative="1" as="geometry">
            <mxPoint x="490" y="444" as="sourcePoint" />
            <mxPoint x="560" y="379" as="targetPoint" />
          </mxGeometry>
        </mxCell>
        <mxCell id="xFN7-tCPdjFMK5SM0wmP-59" style="edgeStyle=orthogonalEdgeStyle;rounded=0;orthogonalLoop=1;jettySize=auto;html=1;entryX=0.5;entryY=1;entryDx=0;entryDy=0;entryPerimeter=0;endArrow=none;endFill=0;strokeWidth=4;curved=1;exitX=0;exitY=0.5;exitDx=0;exitDy=0;exitPerimeter=0;" edge="1" parent="1">
          <mxGeometry relative="1" as="geometry">
            <mxPoint x="701.9972413793093" y="385.0027586206895" as="sourcePoint" />
            <mxPoint x="944.9972413793093" y="450.0027586206895" as="targetPoint" />
          </mxGeometry>
        </mxCell>
        <mxCell id="xFN7-tCPdjFMK5SM0wmP-60" value="Energy Control" style="text;html=1;strokeColor=none;fillColor=none;align=center;verticalAlign=middle;whiteSpace=wrap;overflow=hidden;fontSize=14;rotation=0;" vertex="1" parent="1">
          <mxGeometry x="370" y="490" width="125" height="20" as="geometry" />
        </mxCell>
        <mxCell id="xFN7-tCPdjFMK5SM0wmP-61" value="Phase Conrtol" style="text;html=1;strokeColor=none;fillColor=none;align=center;verticalAlign=middle;whiteSpace=wrap;overflow=hidden;fontSize=14;rotation=0;" vertex="1" parent="1">
          <mxGeometry x="537" y="490" width="125" height="20" as="geometry" />
        </mxCell>
        <mxCell id="xFN7-tCPdjFMK5SM0wmP-62" value="Contactor Status" style="text;html=1;strokeColor=none;fillColor=none;align=center;verticalAlign=middle;whiteSpace=wrap;overflow=hidden;fontSize=14;rotation=0;" vertex="1" parent="1">
          <mxGeometry x="712.5" y="490" width="125" height="20" as="geometry" />
        </mxCell>
        <mxCell id="xFN7-tCPdjFMK5SM0wmP-63" value="All Sensor Control" style="text;html=1;strokeColor=none;fillColor=none;align=center;verticalAlign=middle;whiteSpace=wrap;overflow=hidden;fontSize=14;rotation=0;" vertex="1" parent="1">
          <mxGeometry x="885.5" y="490" width="125" height="20" as="geometry" />
        </mxCell>
        <mxCell id="xFN7-tCPdjFMK5SM0wmP-65" value="" style="verticalLabelPosition=bottom;verticalAlign=top;html=1;strokeWidth=4;shape=mxgraph.flowchart.on-page_reference;plain-purple;gradientColor=none;strokeColor=#000000;fillColor=#D5E8D4;rotation=90;" vertex="1" parent="1">
          <mxGeometry x="240" y="450" width="30" height="30" as="geometry" />
        </mxCell>
        <mxCell id="xFN7-tCPdjFMK5SM0wmP-66" style="edgeStyle=orthogonalEdgeStyle;rounded=0;orthogonalLoop=1;jettySize=auto;html=1;entryX=0.5;entryY=1;entryDx=0;entryDy=0;entryPerimeter=0;endArrow=none;endFill=0;strokeWidth=4;curved=1;exitX=0;exitY=0.5;exitDx=0;exitDy=0;exitPerimeter=0;" edge="1" source="xFN7-tCPdjFMK5SM0wmP-65" target="xFN7-tCPdjFMK5SM0wmP-68" parent="1">
          <mxGeometry relative="1" as="geometry">
            <mxPoint x="260" y="445" as="sourcePoint" />
            <mxPoint x="503" y="380" as="targetPoint" />
          </mxGeometry>
        </mxCell>
        <mxCell id="xFN7-tCPdjFMK5SM0wmP-67" value="Start Key State" style="text;html=1;strokeColor=none;fillColor=none;align=center;verticalAlign=middle;whiteSpace=wrap;overflow=hidden;fontSize=14;rotation=0;" vertex="1" parent="1">
          <mxGeometry x="699" y="290" width="125" height="40" as="geometry" />
        </mxCell>
        <mxCell id="xFN7-tCPdjFMK5SM0wmP-68" value="" style="verticalLabelPosition=bottom;verticalAlign=top;html=1;strokeWidth=4;shape=mxgraph.flowchart.on-page_reference;gradientColor=#ffa500;strokeColor=#66B2FF;fillColor=#ffcd28;rotation=90;" vertex="1" parent="1">
          <mxGeometry x="672" y="370" width="30" height="30" as="geometry" />
        </mxCell>
        <mxCell id="xFN7-tCPdjFMK5SM0wmP-69" value="" style="endArrow=classic;html=1;rounded=0;entryX=0;entryY=0.5;entryDx=0;entryDy=0;entryPerimeter=0;exitX=1;exitY=0.5;exitDx=0;exitDy=0;strokeWidth=14;" edge="1" parent="1" target="xFN7-tCPdjFMK5SM0wmP-50">
          <mxGeometry width="50" height="50" relative="1" as="geometry">
            <mxPoint x="683.41" y="70" as="sourcePoint" />
            <mxPoint x="683.41" y="172" as="targetPoint" />
          </mxGeometry>
        </mxCell>
      </root>
    </mxGraphModel>
  </diagram>
</mxfile>
